<?xml version="1.0" encoding="UTF-8"?>
<svg version="1.1" xmlns="http://www.w3.org/2000/svg" width="48" height="48">
<path d="M0 0 C3.12578143 1.6720747 5.39281175 3.7856235 7 7 C7.61957854 11.92122384 7.97146521 16.49248526 4.8125 20.5625 C2.00957126 22.99170491 0.64626587 23.79164195 -3 24 C-3 26.64 -3 29.28 -3 32 C-0.36 32 2.28 32 5 32 C5 33.32 5 34.64 5 36 C2.36 36 -0.28 36 -3 36 C-3 38.64 -3 41.28 -3 44 C-4.32 44 -5.64 44 -7 44 C-7 41.36 -7 38.72 -7 36 C-9.64 36 -12.28 36 -15 36 C-15 34.68 -15 33.36 -15 32 C-12.36 32 -9.72 32 -7 32 C-7 29.36 -7 26.72 -7 24 C-7.721875 23.95875 -8.44375 23.9175 -9.1875 23.875 C-12.33868966 22.89462988 -14.04428001 21.57459935 -16.04296875 18.94140625 C-17.95229219 15.06820727 -17.86415841 11.16551359 -17 7 C-13.0954354 -0.1344434 -7.57212079 -1.06682253 0 0 Z M-10.375 6.625 C-12.4753727 9.69477548 -12.53293835 11.34556561 -12 15 C-10.53937111 17.84438258 -9.60149532 18.76256764 -6.625 19.9375 C-3.25308579 20.01778367 -1.69667856 18.94760118 1 17 C2.36997745 15.84254513 2.36997745 15.84254513 2.3125 12.6875 C2.30090201 9.02668938 2.30090201 9.02668938 0.375 6.5625 C-3.54184944 3.98562537 -6.50053082 3.97404741 -10.375 6.625 Z " fill="#FF1643" transform="translate(29,2)"/>
</svg>