<?xml version="1.0" encoding="UTF-8"?>
<svg version="1.1" xmlns="http://www.w3.org/2000/svg" width="48" height="48">
<path d="M0 0 C5.61 0 11.22 0 17 0 C17 5.61 17 11.22 17 17 C15.68 17 14.36 17 13 17 C12.67 14.36 12.34 11.72 12 9 C9.12286119 11.01840095 6.90598681 13.0297566 5 16 C4.68941922 19.38281233 4.87540256 22.56922747 5.078125 25.95703125 C4.99554439 29.17354616 4.66222482 30.33225905 2.625 32.75 C-1.46157383 36.25277757 -4.18764371 36.38983274 -9.44921875 36.359375 C-13.55868504 35.78039966 -15.21349577 34.00085071 -18 31 C-19.86233425 27.27533151 -19.57130829 23.05504687 -19 19 C-17.3279253 15.87421857 -15.2143765 13.60718825 -12 12 C-9.93662763 12.10966175 -7.87419741 12.23739534 -5.8125 12.375 C-0.91100962 12.47043996 -0.91100962 12.47043996 3.4140625 10.4453125 C5.10909036 8.70843211 6.60720658 6.9853637 8 5 C5.36 4.67 2.72 4.34 0 4 C0 2.68 0 1.36 0 0 Z M-12.375 18.625 C-14.48706506 21.71186432 -14.61195145 23.3282913 -14 27 C-12.5 29.5 -12.5 29.5 -10 31 C-6.3282913 31.61195145 -4.71186432 31.48706506 -1.625 29.375 C0.48706506 26.28813568 0.61195145 24.6717087 0 21 C-1.5 18.5 -1.5 18.5 -4 17 C-7.6717087 16.38804855 -9.28813568 16.51293494 -12.375 18.625 Z " fill="#2095F2" transform="translate(25,6)"/>
</svg>